<svg clip-rule="evenodd" fill-rule="evenodd" stroke-linejoin="round" stroke-miterlimit="2" viewBox="0 0 55 55" xmlns="http://www.w3.org/2000/svg"><g fill="#1073a5" fill-rule="nonzero"><path d="m32.419 24.01c-2.243 0-3.245 1.24-3.805 2.1v.04h-.027c.007-.01.018-.02.027-.04v-1.8h-4.222c.056 1.19 0 12.7 0 12.7h4.222v-7.09c0-.38.028-.76.14-1.03.306-.76.999-1.54 2.166-1.54 1.528 0 2.139 1.16 2.139 2.87v6.79h4.223v-7.28c0-3.9-2.083-5.72-4.863-5.72z"/><path d="m17.832 24.31h4.224v12.7h-4.224z"/><path d="m19.972 18.19c-1.444 0-2.39.95-2.39 2.19 0 1.22.918 2.2 2.334 2.2h.029c1.471 0 2.388-.98 2.388-2.2-.028-1.24-.917-2.19-2.361-2.19z"/><path d="m41.536 39.58c0 1.11-.924 2.02-2.065 2.02h-23.824c-1.141 0-2.066-.91-2.066-2.02v-24.1c0-1.11.925-2.02 2.066-2.02h23.824c1.141 0 2.065.91 2.065 2.02zm-14.349-39.4c-14.859 0-26.905 12.05-26.905 26.91 0 14.85 12.046 26.9 26.905 26.9s26.906-12.05 26.906-26.9c0-14.86-12.047-26.91-26.906-26.91z"/></g></svg>